<svg width="324" height="263" viewBox="0 0 324 263" fill="none" xmlns="http://www.w3.org/2000/svg">
<path d="M227.98 2.70237L41.597 84.3753C25.3303 91.5039 22.877 113.572 37.1864 124.093L201.099 244.686C215.405 255.211 235.743 246.301 237.7 228.655L260.171 26.3922C262.132 8.73109 244.247 -4.42621 227.98 2.70237Z" fill="#76AAEB"/>
<path d="M288.905 253.705H16.5016C16.3039 253.705 16.1142 253.627 15.9744 253.487C15.8345 253.347 15.756 253.157 15.756 252.96C15.756 252.762 15.8345 252.572 15.9744 252.432C16.1142 252.292 16.3039 252.214 16.5016 252.214H288.905C289.103 252.214 289.293 252.292 289.432 252.432C289.572 252.572 289.651 252.762 289.651 252.96C289.651 253.157 289.572 253.347 289.432 253.487C289.293 253.627 289.103 253.705 288.905 253.705Z" fill="#09090C"/>
<path d="M186.715 105.463L196.014 74.7338C196.143 74.3049 196.366 73.9098 196.666 73.5768C196.966 73.2438 197.335 72.981 197.748 72.8072C198.161 72.6335 198.608 72.553 199.055 72.5715C199.503 72.59 199.941 72.7071 200.339 72.9144L210.375 78.1341C210.809 78.3599 211.182 78.6869 211.463 79.0875C211.744 79.4881 211.924 79.9504 211.989 80.4354C212.053 80.9203 212 81.4136 211.833 81.8736C211.666 82.3336 211.391 82.7466 211.031 83.0779L186.715 105.463Z" fill="#FFE589"/>
<path d="M184.333 104.259L210.864 87.742C211.275 87.4858 211.74 87.3256 212.222 87.2733C212.704 87.2209 213.192 87.2778 213.649 87.4396C214.107 87.6015 214.522 87.8642 214.864 88.2083C215.206 88.5523 215.466 88.9689 215.625 89.4272L219.144 99.6168C219.311 100.101 219.361 100.617 219.29 101.124C219.218 101.631 219.027 102.113 218.733 102.532C218.438 102.951 218.049 103.293 217.596 103.532C217.143 103.771 216.64 103.898 216.128 103.904L184.333 104.259Z" fill="#FFE589"/>
<path d="M146.818 161.119C159.171 161.119 169.185 151.106 169.185 138.753C169.185 126.401 159.171 116.387 146.818 116.387C134.466 116.387 124.452 126.401 124.452 138.753C124.452 151.106 134.466 161.119 146.818 161.119Z" fill="#09090C"/>
<path d="M98.6816 41.5255H10.8495C5.26929 41.5255 0.745668 46.0492 0.745668 51.6293V90.5159C0.745668 96.0961 5.26929 100.62 10.8495 100.62H98.6816C104.262 100.62 108.785 96.0961 108.785 90.5159V51.6293C108.785 46.0492 104.262 41.5255 98.6816 41.5255Z" fill="#EAECFF"/>
<path d="M98.6816 101.365H10.8532C7.97565 101.362 5.21682 100.218 3.18209 98.1833C1.14737 96.1485 0.00296094 93.3897 0 90.5122V51.6331C0.00296094 48.7555 1.14737 45.9967 3.18209 43.962C5.21682 41.9272 7.97565 40.7828 10.8532 40.7799H98.6816C101.559 40.7838 104.316 41.9287 106.35 43.9633C108.384 45.9979 109.528 48.7562 109.531 51.6331V90.5122C109.528 93.3891 108.384 96.1473 106.35 98.1819C104.316 100.217 101.559 101.361 98.6816 101.365ZM10.8532 42.2712C8.37088 42.2732 5.9908 43.2602 4.23554 45.0154C2.48028 46.7707 1.49331 49.1508 1.49134 51.6331V90.5122C1.49331 92.9945 2.48028 95.3746 4.23554 97.1298C5.9908 98.8851 8.37088 99.8721 10.8532 99.874H98.6816C101.163 99.8711 103.542 98.8837 105.297 97.1285C107.051 95.3734 108.038 92.9938 108.04 90.5122V51.6331C108.038 49.1514 107.051 46.7719 105.297 45.0167C103.542 43.2616 101.163 42.2742 98.6816 42.2712H10.8532Z" fill="#09090C"/>
<path d="M20.4649 61.4647C20.2703 61.4647 20.0834 61.3888 19.9441 61.2529C19.8048 61.1171 19.7241 60.9322 19.7192 60.7377C19.6483 57.7028 20.7706 55.8908 21.7288 54.9028C22.7857 53.7852 24.2404 53.1288 25.7777 53.0759H25.8187C27.3035 53.1073 28.7158 53.7237 29.7484 54.791C30.7252 55.7715 31.8848 57.5984 31.8475 60.7265C31.8475 60.9242 31.7689 61.1139 31.6291 61.2537C31.4892 61.3936 31.2996 61.4721 31.1018 61.4721C30.904 61.4721 30.7144 61.3936 30.5745 61.2537C30.4347 61.1139 30.3561 60.9242 30.3561 60.7265C30.386 58.1166 29.4688 56.6253 28.6933 55.861C27.9351 55.0794 26.9033 54.6223 25.815 54.5859H25.7889C24.6538 54.6366 23.5834 55.129 22.8062 55.9579C21.7213 57.0764 21.1695 58.7244 21.218 60.719C21.2205 60.8169 21.2036 60.9144 21.1684 61.0058C21.1332 61.0972 21.0803 61.1808 21.0128 61.2518C20.9453 61.3228 20.8645 61.3798 20.7749 61.4195C20.6854 61.4592 20.5889 61.4809 20.491 61.4833L20.4649 61.4647Z" fill="#09090C"/>
<path d="M36.4967 90.2064H15.1781C14.6559 90.2063 14.1399 90.0945 13.6645 89.8787C13.1891 89.6629 12.7652 89.348 12.4214 88.955C12.0776 88.5621 11.8217 88.1003 11.6708 87.6005C11.5199 87.1006 11.4776 86.5743 11.5467 86.0568L14.5293 63.8956C14.6468 63.0159 15.0798 62.2089 15.7478 61.6245C16.4158 61.0402 17.2733 60.7184 18.1607 60.719H33.0219C33.895 60.719 34.7394 61.0308 35.4031 61.5981C36.0668 62.1654 36.5062 62.9511 36.6421 63.8135L40.1057 85.9785C40.1881 86.5003 40.1565 87.0337 40.0131 87.5421C39.8696 88.0505 39.6178 88.5218 39.2748 88.9236C38.9318 89.3253 38.5059 89.648 38.0264 89.8695C37.5468 90.091 37.0249 90.2059 36.4967 90.2064Z" fill="#1A72DD"/>
<path d="M94.4164 57.3374H54.0199C52.4158 57.3374 51.1155 58.6378 51.1155 60.2418V62.4975C51.1155 64.1015 52.4158 65.4018 54.0199 65.4018H94.4164C96.0205 65.4018 97.3208 64.1015 97.3208 62.4975V60.2418C97.3208 58.6378 96.0205 57.3374 94.4164 57.3374Z" fill="#FFE589"/>
<path d="M95.3933 75.61H53.0468C52.849 75.61 52.6594 75.5315 52.5195 75.3916C52.3797 75.2518 52.3011 75.0621 52.3011 74.8644C52.3011 74.6666 52.3797 74.4769 52.5195 74.3371C52.6594 74.1972 52.849 74.1187 53.0468 74.1187H95.3933C95.591 74.1187 95.7807 74.1972 95.9205 74.3371C96.0604 74.4769 96.1389 74.6666 96.1389 74.8644C96.1389 75.0621 96.0604 75.2518 95.9205 75.3916C95.7807 75.5315 95.591 75.61 95.3933 75.61Z" fill="#09090C"/>
<path d="M89.4316 85.1918H53.0468C52.849 85.1918 52.6594 85.1133 52.5195 84.9734C52.3797 84.8336 52.3011 84.6439 52.3011 84.4462C52.3011 84.2484 52.3797 84.0587 52.5195 83.9189C52.6594 83.7791 52.849 83.7005 53.0468 83.7005H89.4316C89.6294 83.7005 89.8191 83.7791 89.9589 83.9189C90.0987 84.0587 90.1773 84.2484 90.1773 84.4462C90.1773 84.6439 90.0987 84.8336 89.9589 84.9734C89.8191 85.1133 89.6294 85.1918 89.4316 85.1918Z" fill="#09090C"/>
<path d="M213.705 180.417C226.619 180.417 237.089 170.015 237.089 157.182C237.089 144.35 226.619 133.947 213.705 133.947C200.79 133.947 190.32 144.35 190.32 157.182C190.32 170.015 200.79 180.417 213.705 180.417Z" fill="#09090C"/>
<path d="M190.32 149.069C203.235 149.069 213.705 138.667 213.705 125.834C213.705 113.002 203.235 102.599 190.32 102.599C177.406 102.599 166.936 113.002 166.936 125.834C166.936 138.667 177.406 149.069 190.32 149.069Z" fill="#09090C"/>
<path d="M169.777 122.102H155.565C152.066 122.102 148.602 121.413 145.37 120.074C142.138 118.735 139.201 116.773 136.727 114.299C134.253 111.825 132.291 108.888 130.953 105.655C129.614 102.423 128.925 98.9583 128.926 95.4597V77.2803C128.931 73.1012 130.595 69.095 133.552 66.142C136.509 63.189 140.518 61.5308 144.697 61.5318H163.887C170.389 61.5318 176.625 64.1149 181.223 68.7128C185.821 73.3108 188.404 79.5469 188.404 86.0494V103.509C188.402 105.953 187.919 108.373 186.982 110.63C186.044 112.887 184.672 114.937 182.942 116.664C181.212 118.391 179.159 119.76 176.901 120.693C174.642 121.626 172.221 122.105 169.777 122.102Z" fill="#09090C"/>
<path d="M134.805 67.7581C134.805 67.7581 126.372 69.0034 124.157 86.8397C123.895 89.0185 122.955 91.0597 121.469 92.6746L120.112 94.1436C119.77 94.5133 119.575 94.9957 119.565 95.4994C119.555 96.003 119.729 96.493 120.056 96.8764L121.894 99.0389L120.966 110.448C120.966 110.448 119.102 122.606 133.415 122.229H142.519V134.842H171.134V113.162C171.134 113.162 177.655 112.043 178.841 105.623C179.14 104.018 179.073 102.366 178.642 100.792C178.212 99.2167 177.431 97.7596 176.358 96.5297C174.221 94.11 170.456 92.0557 164.256 94.9489C164.259 94.9489 139.63 99.8927 134.805 67.7581Z" fill="white"/>
<path d="M169.185 108.378C168.595 108.378 168.018 108.203 167.527 107.876C167.037 107.548 166.655 107.082 166.429 106.537C166.203 105.992 166.144 105.392 166.259 104.814C166.374 104.235 166.658 103.704 167.075 103.287C167.493 102.869 168.024 102.585 168.603 102.47C169.181 102.355 169.781 102.414 170.326 102.64C170.871 102.866 171.337 103.248 171.665 103.739C171.992 104.229 172.167 104.806 172.167 105.396C172.167 106.187 171.853 106.945 171.294 107.505C170.734 108.064 169.976 108.378 169.185 108.378ZM169.185 103.882C168.89 103.882 168.601 103.969 168.356 104.133C168.111 104.297 167.92 104.53 167.807 104.803C167.694 105.075 167.664 105.375 167.722 105.664C167.779 105.954 167.921 106.219 168.13 106.428C168.339 106.636 168.604 106.778 168.894 106.836C169.183 106.894 169.483 106.864 169.755 106.751C170.028 106.638 170.261 106.447 170.425 106.202C170.588 105.957 170.676 105.668 170.676 105.373C170.676 104.978 170.519 104.598 170.239 104.319C169.959 104.039 169.58 103.882 169.185 103.882Z" fill="#09090C"/>
<path d="M166.936 106.13C166.742 106.13 166.556 106.055 166.417 105.92C166.278 105.785 166.196 105.601 166.191 105.407C166.138 103.867 166.597 102.622 167.559 101.705C169.468 99.8852 172.656 100.116 172.779 100.128C172.976 100.143 173.16 100.236 173.289 100.387C173.418 100.537 173.482 100.733 173.467 100.931C173.451 101.129 173.358 101.312 173.207 101.441C173.057 101.57 172.861 101.634 172.663 101.619C172.637 101.619 169.994 101.432 168.562 102.797C167.917 103.416 167.622 104.255 167.66 105.366C167.663 105.464 167.647 105.562 167.613 105.654C167.578 105.746 167.526 105.83 167.458 105.902C167.391 105.974 167.311 106.032 167.221 106.072C167.131 106.112 167.035 106.135 166.936 106.138V106.13Z" fill="#09090C"/>
<path d="M137.807 94.9265C138.781 94.9265 139.57 94.137 139.57 93.163C139.57 92.1891 138.781 91.3995 137.807 91.3995C136.833 91.3995 136.043 92.1891 136.043 93.163C136.043 94.137 136.833 94.9265 137.807 94.9265Z" fill="#09090C"/>
<path d="M131.614 109.799C130.896 109.802 130.185 109.66 129.522 109.381C127.379 108.475 125.94 106.085 125.943 103.438C125.944 103.216 125.994 102.997 126.088 102.796C126.183 102.596 126.32 102.418 126.491 102.276C126.661 102.134 126.861 102.031 127.075 101.974C127.29 101.917 127.514 101.908 127.733 101.947L136.625 103.535C136.852 103.577 137.067 103.67 137.253 103.807C137.439 103.944 137.592 104.122 137.7 104.326C137.807 104.531 137.867 104.757 137.875 104.988C137.882 105.219 137.838 105.449 137.743 105.66C136.603 108.196 134.079 109.799 131.614 109.799ZM127.464 103.397C127.46 103.408 127.46 103.42 127.464 103.431C127.464 105.489 128.534 107.323 130.134 108.002C132.587 109.038 135.413 107.256 136.416 105.019L136.394 104.974L127.498 103.386L127.464 103.397Z" fill="#09090C"/>
<path d="M142.285 122.244H155.956C156.078 122.245 156.195 122.287 156.288 122.364C156.382 122.441 156.446 122.548 156.471 122.667C156.495 122.785 156.478 122.909 156.423 123.016C156.367 123.124 156.276 123.209 156.165 123.258L142.285 129.186V122.244Z" fill="#09090C"/>
<path d="M142.285 134.551C142.282 133.871 142.498 133.208 142.9 132.661C143.303 132.113 143.872 131.709 144.522 131.509C145.019 131.358 145.53 131.256 146.046 131.203C147.999 131.022 149.956 131.507 151.598 132.579C152.969 131.516 154.654 130.938 156.389 130.934C158.124 130.93 159.811 131.5 161.187 132.557C162.576 131.624 164.198 131.1 165.87 131.043C166.919 131.014 167.964 131.173 168.957 131.513C169.576 131.729 170.111 132.132 170.49 132.667C170.869 133.201 171.072 133.84 171.071 134.495V141.02H142.285V134.551Z" fill="#1A72DD"/>
<path d="M253.281 228.673L88.768 228.535L96.0606 161.772C96.7521 155.445 99.7514 149.595 104.485 145.34C109.219 141.085 115.354 138.724 121.719 138.708L189.728 138.537C197.662 138.518 205.422 140.869 212.011 145.29C218.6 149.711 223.718 156 226.709 163.349C240.504 195.07 250.485 218.23 251.573 220.978C252.091 222.325 252.506 223.71 252.815 225.12C253.057 226.291 253.213 227.479 253.281 228.673Z" fill="#1A72DD"/>
<path d="M203.508 228.587H119.18V171.436H182.819C183.688 171.436 184.535 171.714 185.235 172.23C185.934 172.746 186.451 173.472 186.708 174.303L203.508 228.587Z" fill="#09090C"/>
<path d="M182.808 172.181C182.63 172.184 182.458 172.123 182.321 172.01C182.184 171.896 182.092 171.738 182.062 171.563C181.853 170.328 177.055 141.322 187.066 137.836C187.253 137.771 187.458 137.782 187.636 137.868C187.814 137.954 187.951 138.108 188.016 138.295C188.082 138.481 188.07 138.687 187.984 138.865C187.898 139.043 187.745 139.18 187.558 139.245C180.224 141.795 182.167 163.26 183.535 171.309C183.551 171.406 183.549 171.505 183.527 171.6C183.505 171.696 183.465 171.787 183.408 171.867C183.351 171.947 183.279 172.015 183.196 172.067C183.113 172.119 183.02 172.154 182.923 172.17C182.885 172.177 182.847 172.181 182.808 172.181Z" fill="#09090C"/>
<path d="M121.044 172.181C120.876 172.182 120.713 172.125 120.581 172.021C120.449 171.917 120.356 171.771 120.317 171.607C118.37 163.491 118.318 155.036 120.164 146.896C120.834 143.998 121.747 141.162 122.893 138.418C122.973 138.241 123.119 138.102 123.299 138.03C123.48 137.959 123.681 137.961 123.861 138.036C124.04 138.11 124.183 138.252 124.259 138.431C124.335 138.609 124.339 138.811 124.269 138.992C123.156 141.659 122.269 144.415 121.618 147.231C119.822 155.149 119.875 163.374 121.771 171.268C121.793 171.363 121.796 171.462 121.78 171.559C121.764 171.656 121.729 171.748 121.677 171.831C121.625 171.914 121.557 171.986 121.478 172.043C121.398 172.1 121.308 172.141 121.212 172.163C121.157 172.176 121.101 172.183 121.044 172.181Z" fill="#09090C"/>
<path d="M110.385 125.555C109.61 124.552 108.72 123.644 107.734 122.848L107.693 122.811C105.849 121.174 104.247 119.284 102.936 117.196C101.772 115.332 101.072 113.423 99.9306 110.485C99.3602 109.023 98.9576 107.875 98.7339 107.234C96.0755 99.5981 94.3307 92.7529 91.6314 91.7686C91.2249 91.6307 90.8028 91.5443 90.3749 91.5114C89.8053 91.4579 89.2307 91.5192 88.6852 91.6914C88.1396 91.8637 87.6341 92.1435 87.1984 92.5143C86.9094 92.7609 86.6581 93.0485 86.4527 93.3681C85.4088 95.0272 85.927 97.432 86.997 102.171C87.1685 102.916 87.3214 103.532 87.4221 103.942L89.5882 113.874C89.5882 113.874 84.2642 115.078 84.5624 119.299C84.5624 119.299 79.641 116.383 77.7321 122.11C77.7321 122.11 71.5058 122.613 73.314 129.443C73.314 129.443 75.8232 138.585 79.5404 138.887C79.5404 138.887 78.8394 153.152 90.6918 159.393L110.079 156.955L111.354 151.429C114.71 136.889 113.196 132.173 112.633 130.428C112.089 128.716 111.334 127.079 110.385 125.555Z" fill="white"/>
<path d="M93.2047 151.306C93.0871 151.307 92.971 151.279 92.866 151.226C92.7611 151.173 92.6701 151.096 92.6007 151.001C90.3623 147.962 88.9726 144.382 88.5741 140.628C87.7278 132.053 92.6268 125.715 94.6327 123.534L93.0779 119.522C92.9251 119.116 92.7275 118.598 92.5075 118.083C91.2734 115.216 90.7179 112.808 90.8596 110.921C90.8997 110.351 91.0548 109.796 91.3156 109.287C91.5764 108.779 91.9375 108.329 92.377 107.965C92.8074 107.606 93.3063 107.338 93.8434 107.178C94.3805 107.017 94.9446 106.968 95.5014 107.032C98.8792 107.405 100.9 111.268 100.986 111.428C101.031 111.515 101.058 111.61 101.066 111.708C101.075 111.806 101.064 111.904 101.034 111.998C101.004 112.091 100.956 112.178 100.893 112.253C100.83 112.328 100.752 112.39 100.665 112.435C100.578 112.48 100.483 112.507 100.385 112.516C100.287 112.524 100.189 112.513 100.095 112.483C100.002 112.453 99.9152 112.405 99.8402 112.342C99.7653 112.279 99.7035 112.201 99.6585 112.114C99.6585 112.081 97.9173 108.8 95.3373 108.516C94.9794 108.474 94.6167 108.506 94.2713 108.608C93.9258 108.711 93.6048 108.882 93.3277 109.113C93.0428 109.35 92.809 109.642 92.6404 109.972C92.4719 110.302 92.3721 110.663 92.3472 111.033C92.2242 112.677 92.7387 114.851 93.8758 117.494C94.1107 118.035 94.3158 118.579 94.4723 118.986L96.3663 123.87L96.0345 124.213C94.4202 125.887 89.2228 132.005 90.0692 140.476C90.4365 143.962 91.7231 147.288 93.7975 150.113C93.9138 150.273 93.9622 150.472 93.9322 150.667C93.9022 150.862 93.7961 151.037 93.6372 151.154C93.5127 151.249 93.3614 151.302 93.2047 151.306Z" fill="#09090C"/>
<path d="M135.439 224.945C130.39 224.612 125.323 225.214 120.492 226.72C102.518 232.383 94.5432 248.981 92.8505 252.74L135.439 252.96V224.945Z" fill="white"/>
<path d="M136.185 253.709L91.6984 253.478L92.1682 252.434C94.9496 246.275 103.249 231.373 120.269 226.007C125.186 224.474 130.344 223.861 135.484 224.199L136.185 224.244V253.709ZM94.0175 252.001L134.694 252.21V225.65C129.965 225.419 125.233 226.026 120.716 227.443C105.165 232.331 97.1232 245.525 94.0175 252.001Z" fill="#09090C"/>
<path d="M86.5347 140.945C85.8066 140.953 85.0864 140.794 84.4282 140.483C83.6085 140.081 82.9138 139.464 82.4186 138.697C82.1631 139.009 81.8441 139.263 81.4828 139.443C80.7976 139.767 80.0133 139.814 79.2943 139.573C79.2023 139.54 79.1177 139.488 79.0455 139.422C78.9733 139.356 78.9148 139.276 78.8735 139.187C78.8321 139.099 78.8086 139.003 78.8044 138.905C78.8001 138.807 78.8152 138.709 78.8488 138.617C78.8823 138.525 78.9337 138.44 78.9999 138.368C79.0661 138.296 79.1459 138.238 79.2347 138.196C79.3235 138.155 79.4195 138.131 79.5174 138.127C79.6153 138.123 79.713 138.138 79.8051 138.171C80.1453 138.274 80.5111 138.249 80.8341 138.101C81.0594 137.956 81.2536 137.767 81.4053 137.546C81.5571 137.326 81.6633 137.077 81.7177 136.814L82.4634 134.387L83.1606 136.826C83.1606 136.826 83.6565 138.455 85.0956 139.133C86.1172 139.618 87.4146 139.532 88.9507 138.884C89.0415 138.841 89.14 138.817 89.2403 138.813C89.3406 138.809 89.4406 138.826 89.5343 138.862C89.6281 138.898 89.7136 138.952 89.7858 139.022C89.858 139.091 89.9155 139.175 89.9546 139.267C89.9938 139.36 90.0139 139.459 90.0138 139.559C90.0136 139.66 89.9932 139.759 89.9538 139.851C89.9144 139.944 89.8567 140.027 89.7843 140.096C89.7119 140.166 89.6262 140.22 89.5323 140.256C88.5893 140.684 87.57 140.918 86.5347 140.945Z" fill="#09090C"/>
<path d="M82.4298 137.784C82.2717 137.783 82.1178 137.732 81.9904 137.638C81.8631 137.545 81.7689 137.413 81.7215 137.262L77.0163 122.326C76.957 122.137 76.9751 121.932 77.0667 121.757C77.1583 121.581 77.3158 121.45 77.5047 121.39C77.6936 121.331 77.8983 121.349 78.0738 121.441C78.2493 121.532 78.3812 121.69 78.4405 121.879L83.127 136.814C83.1565 136.908 83.1673 137.006 83.1587 137.104C83.1501 137.202 83.1223 137.297 83.0769 137.384C83.0316 137.47 82.9695 137.548 82.8943 137.611C82.8191 137.673 82.7322 137.721 82.6386 137.75C82.571 137.771 82.5007 137.783 82.4298 137.784Z" fill="#09090C"/>
<path d="M89.8119 134.693C89.6582 134.693 89.5084 134.645 89.3829 134.556C89.2575 134.467 89.1625 134.342 89.111 134.197L83.8727 119.541C83.8396 119.449 83.8251 119.351 83.8299 119.253C83.8347 119.155 83.8587 119.059 83.9006 118.97C83.9425 118.882 84.0014 118.802 84.074 118.736C84.1466 118.671 84.2315 118.62 84.3238 118.587C84.4161 118.554 84.514 118.539 84.6119 118.544C84.7098 118.549 84.8058 118.573 84.8945 118.614C84.9831 118.656 85.0626 118.715 85.1285 118.788C85.1943 118.861 85.2452 118.945 85.2783 119.038L90.4979 133.698C90.538 133.81 90.5504 133.931 90.534 134.049C90.5177 134.168 90.4731 134.281 90.404 134.378C90.3349 134.476 90.2433 134.555 90.137 134.61C90.0308 134.665 89.9129 134.693 89.7933 134.693H89.8119Z" fill="#09090C"/>
<path d="M285.039 52.252H236.254C229.178 52.252 223.443 57.9866 223.443 65.0607C223.443 72.1347 229.178 77.8694 236.254 77.8694H285.039C292.114 77.8694 297.849 72.1347 297.849 65.0607C297.849 57.9866 292.114 52.252 285.039 52.252Z" fill="#EAECFF"/>
<path d="M285.058 78.6188H236.25C232.655 78.6188 229.206 77.1905 226.664 74.6483C224.122 72.106 222.694 68.6579 222.694 65.0626C222.694 61.4672 224.122 58.0191 226.664 55.4769C229.206 52.9346 232.655 51.5063 236.25 51.5063H285.058C288.653 51.5063 292.101 52.9346 294.643 55.4768C297.186 58.0191 298.614 61.4672 298.614 65.0626C298.614 68.6579 297.186 72.106 294.643 74.6483C292.101 77.1905 288.653 78.6188 285.058 78.6188ZM236.25 52.9977C233.05 52.9977 229.981 54.2688 227.719 56.5314C225.456 58.794 224.185 61.8627 224.185 65.0626C224.185 68.2624 225.456 71.3311 227.719 73.5937C229.981 75.8563 233.05 77.1275 236.25 77.1275H285.058C288.257 77.1275 291.326 75.8563 293.589 73.5937C295.851 71.3311 297.122 68.2624 297.122 65.0626C297.122 61.8627 295.851 58.794 293.589 56.5314C291.326 54.2688 288.257 52.9977 285.058 52.9977H236.25Z" fill="#09090C"/>
<path d="M240.373 69.2346C242.678 69.2346 244.545 67.3667 244.545 65.0626C244.545 62.7584 242.678 60.8905 240.373 60.8905C238.069 60.8905 236.201 62.7584 236.201 65.0626C236.201 67.3667 238.069 69.2346 240.373 69.2346Z" fill="#FFE589"/>
<path d="M260.644 69.2346C262.948 69.2346 264.816 67.3667 264.816 65.0626C264.816 62.7584 262.948 60.8905 260.644 60.8905C258.34 60.8905 256.472 62.7584 256.472 65.0626C256.472 67.3667 258.34 69.2346 260.644 69.2346Z" fill="#FFE589"/>
<path d="M280.915 69.2346C283.219 69.2346 285.087 67.3667 285.087 65.0626C285.087 62.7584 283.219 60.8905 280.915 60.8905C278.611 60.8905 276.743 62.7584 276.743 65.0626C276.743 67.3667 278.611 69.2346 280.915 69.2346Z" fill="#FFE589"/>
<path d="M41.3174 122.475H17.6238C12.7726 122.475 8.83987 126.408 8.83987 131.259V154.953C8.83987 159.804 12.7726 163.737 17.6238 163.737H41.3174C46.1687 163.737 50.1014 159.804 50.1014 154.953V131.259C50.1014 126.408 46.1687 122.475 41.3174 122.475Z" fill="white"/>
<path d="M41.3137 164.482H17.6238C15.097 164.478 12.6748 163.473 10.8884 161.686C9.10201 159.898 8.09717 157.476 8.09421 154.949V131.252C8.09717 128.725 9.10201 126.302 10.8884 124.515C12.6748 122.728 15.097 121.722 17.6238 121.718H41.3137C43.8412 121.721 46.2643 122.727 48.0515 124.514C49.8387 126.301 50.8441 128.724 50.8471 131.252V154.938C50.8471 157.467 49.843 159.893 48.0555 161.683C46.2679 163.473 43.8431 164.479 41.3137 164.482ZM17.6238 123.221C15.4938 123.223 13.4515 124.069 11.9447 125.575C10.4379 127.08 9.58949 129.122 9.58554 131.252V154.938C9.58752 157.069 10.4349 159.113 11.9419 160.621C13.4488 162.129 15.4922 162.977 17.6238 162.98H41.3137C43.4457 162.977 45.4895 162.129 46.997 160.621C48.5045 159.114 49.3528 157.07 49.3557 154.938V131.252C49.3537 129.119 48.5058 127.075 46.9981 125.567C45.4903 124.06 43.446 123.212 41.3137 123.21L17.6238 123.221Z" fill="#09090C"/>
<path d="M40.9782 136.363C40.5223 135.526 39.8418 134.833 39.0133 134.361C35.2067 132.232 31.3628 133.552 29.48 136.319C27.5711 133.519 23.6526 132.195 19.7863 134.454C19.0848 134.863 18.4985 135.443 18.0824 136.14C16.3339 139.077 16.6769 142.027 18.1458 144.126C18.1723 144.163 18.201 144.199 18.2316 144.234V144.252C18.2614 144.293 20.133 146.463 21.3037 147.649C23.5386 149.826 25.8817 151.889 28.3242 153.831C28.6401 154.088 29.0352 154.228 29.4427 154.228C29.8502 154.228 30.2452 154.088 30.5612 153.831C32.6677 152.149 34.379 150.691 35.6504 149.576C36.6216 148.768 37.5383 147.896 38.3944 146.967C40.2213 144.95 44.2442 142.306 40.9782 136.363Z" fill="#FFE589"/>
<path d="M310.72 106.98H237.998C231.076 106.98 225.464 112.592 225.464 119.515V199.126C225.464 206.049 231.076 211.661 237.998 211.661H310.72C317.642 211.661 323.254 206.049 323.254 199.126V119.515C323.254 112.592 317.642 106.98 310.72 106.98Z" fill="#EAECFF"/>
<path d="M310.72 212.406H237.998C234.477 212.402 231.102 211.002 228.612 208.512C226.122 206.023 224.722 202.647 224.718 199.126V119.515C224.722 115.994 226.122 112.618 228.612 110.129C231.102 107.639 234.477 106.239 237.998 106.235H310.72C314.241 106.239 317.616 107.639 320.106 110.129C322.596 112.618 323.996 115.994 324 119.515V199.126C323.996 202.647 322.596 206.023 320.106 208.512C317.616 211.002 314.241 212.402 310.72 212.406ZM237.998 107.726C234.873 107.73 231.877 108.973 229.667 111.183C227.457 113.393 226.213 116.389 226.209 119.515V199.126C226.213 202.252 227.457 205.248 229.667 207.458C231.877 209.668 234.873 210.911 237.998 210.915H310.72C313.845 210.911 316.841 209.668 319.051 207.458C321.261 205.248 322.505 202.252 322.509 199.126V119.515C322.506 116.389 321.263 113.392 319.052 111.182C316.842 108.972 313.845 107.729 310.72 107.726H237.998Z" fill="#09090C"/>
<path d="M249.896 146.348H240.168C237.345 146.348 235.057 148.636 235.057 151.459V161.187C235.057 164.01 237.345 166.298 240.168 166.298H249.896C252.719 166.298 255.007 164.01 255.007 161.187V151.459C255.007 148.636 252.719 146.348 249.896 146.348Z" fill="#1A72DD"/>
<path d="M249.896 176.633H240.168C237.345 176.633 235.057 178.922 235.057 181.745V191.472C235.057 194.295 237.345 196.583 240.168 196.583H249.896C252.719 196.583 255.007 194.295 255.007 191.472V181.745C255.007 178.922 252.719 176.633 249.896 176.633Z" fill="#1A72DD"/>
<path d="M312.353 151.47H267.322C267.124 151.47 266.934 151.392 266.795 151.252C266.655 151.112 266.576 150.923 266.576 150.725C266.576 150.527 266.655 150.337 266.795 150.198C266.934 150.058 267.124 149.979 267.322 149.979H312.353C312.55 149.979 312.74 150.058 312.88 150.198C313.02 150.337 313.098 150.527 313.098 150.725C313.098 150.923 313.02 151.112 312.88 151.252C312.74 151.392 312.55 151.47 312.353 151.47Z" fill="#09090C"/>
<path d="M295.079 162.45H267.322C267.124 162.45 266.934 162.372 266.795 162.232C266.655 162.092 266.576 161.903 266.576 161.705C266.576 161.507 266.655 161.317 266.795 161.178C266.934 161.038 267.124 160.959 267.322 160.959H295.079C295.277 160.959 295.467 161.038 295.607 161.178C295.746 161.317 295.825 161.507 295.825 161.705C295.825 161.903 295.746 162.092 295.607 162.232C295.467 162.372 295.277 162.45 295.079 162.45Z" fill="#09090C"/>
<path d="M312.353 181.864H267.322C267.124 181.864 266.934 181.785 266.795 181.645C266.655 181.506 266.576 181.316 266.576 181.118C266.576 180.92 266.655 180.731 266.795 180.591C266.934 180.451 267.124 180.373 267.322 180.373H312.353C312.55 180.373 312.74 180.451 312.88 180.591C313.02 180.731 313.098 180.92 313.098 181.118C313.098 181.316 313.02 181.506 312.88 181.645C312.74 181.785 312.55 181.864 312.353 181.864Z" fill="#09090C"/>
<path d="M295.079 192.844H267.322C267.124 192.844 266.934 192.765 266.795 192.625C266.655 192.486 266.576 192.296 266.576 192.098C266.576 191.9 266.655 191.711 266.795 191.571C266.934 191.431 267.124 191.353 267.322 191.353H295.079C295.277 191.353 295.467 191.431 295.607 191.571C295.746 191.711 295.825 191.9 295.825 192.098C295.825 192.296 295.746 192.486 295.607 192.625C295.467 192.765 295.277 192.844 295.079 192.844Z" fill="#09090C"/>
<path d="M252.848 121.01C252.537 120.436 252.071 119.962 251.502 119.642C248.893 118.18 246.26 119.086 244.97 120.984C243.662 119.064 240.977 118.158 238.334 119.698C237.855 119.98 237.455 120.379 237.171 120.857C235.97 122.867 236.205 124.887 237.212 126.327C237.23 126.353 237.25 126.378 237.271 126.401C237.294 126.431 238.576 127.919 239.378 128.731C240.064 129.421 241.757 131.002 244.187 132.963C244.404 133.137 244.673 133.232 244.95 133.232C245.227 133.232 245.496 133.137 245.712 132.963C247.155 131.807 248.322 130.808 249.198 130.047C249.857 129.494 250.48 128.898 251.063 128.265C252.33 126.897 255.089 125.085 252.848 121.01Z" fill="#FFE589"/>
<path d="M221.37 260.584H140.614C139.382 260.585 138.162 260.342 137.023 259.871C135.885 259.4 134.85 258.709 133.979 257.838C133.107 256.967 132.416 255.932 131.944 254.794C131.473 253.656 131.23 252.436 131.23 251.204V235.72C131.231 230.196 133.426 224.898 137.332 220.992C141.238 217.085 146.536 214.891 152.06 214.89H239.497C243.156 214.89 246.665 216.343 249.252 218.93C251.839 221.517 253.292 225.026 253.292 228.684C253.291 232.875 252.464 237.024 250.859 240.895C249.254 244.766 246.902 248.283 243.938 251.245C240.973 254.208 237.455 256.557 233.583 258.159C229.71 259.762 225.561 260.585 221.37 260.584Z" fill="#1A72DD"/>
<path d="M96.4894 262.064C93.1463 261.995 89.8495 261.268 86.7874 259.924C83.7253 258.581 80.9578 256.647 78.643 254.234C76.3282 251.821 74.5115 248.976 73.2964 245.86C72.0814 242.745 71.492 239.421 71.5617 236.078L72.9524 169.173C73.0336 165.33 74.6372 161.678 77.4107 159.018C80.1842 156.357 83.9005 154.907 87.7427 154.986L109.684 155.445C113.523 155.528 117.172 157.132 119.829 159.905C122.486 162.678 123.933 166.392 123.852 170.231L122.476 237.137C122.407 240.48 121.679 243.776 120.336 246.838C118.992 249.901 117.059 252.668 114.646 254.983C112.233 257.298 109.387 259.114 106.272 260.329C103.157 261.544 99.8325 262.134 96.4894 262.064Z" fill="#1A72DD"/>
<path d="M215.897 214.886H195.652C195.454 214.886 195.265 214.807 195.125 214.667C194.985 214.528 194.906 214.338 194.906 214.14C194.906 213.942 194.985 213.753 195.125 213.613C195.265 213.473 195.454 213.394 195.652 213.394H215.897C216.095 213.394 216.284 213.473 216.424 213.613C216.564 213.753 216.643 213.942 216.643 214.14C216.643 214.338 216.564 214.528 216.424 214.667C216.284 214.807 216.095 214.886 215.897 214.886Z" fill="#09090C"/>
<path d="M192.52 106.484C191.448 106.484 190.401 106.167 189.51 105.572C188.618 104.976 187.924 104.13 187.513 103.14C187.102 102.151 186.994 101.061 187.203 100.01C187.411 98.9586 187.926 97.9927 188.683 97.2341C189.44 96.4755 190.405 95.9583 191.456 95.7479C192.507 95.5375 193.596 95.6432 194.587 96.0518C195.578 96.4604 196.425 97.1535 197.022 98.0435C197.619 98.9335 197.939 99.9805 197.941 101.052C197.942 101.765 197.803 102.471 197.531 103.13C197.259 103.788 196.86 104.387 196.356 104.892C195.853 105.396 195.255 105.796 194.597 106.07C193.938 106.343 193.233 106.484 192.52 106.484ZM192.52 97.1337C191.742 97.1337 190.982 97.3645 190.336 97.7968C189.689 98.229 189.186 98.8434 188.889 99.5621C188.591 100.281 188.514 101.072 188.667 101.834C188.819 102.597 189.195 103.297 189.745 103.846C190.296 104.395 190.997 104.769 191.76 104.919C192.523 105.069 193.314 104.99 194.032 104.691C194.75 104.392 195.363 103.886 195.793 103.238C196.223 102.591 196.452 101.83 196.45 101.052C196.446 100.012 196.03 99.0161 195.294 98.2818C194.557 97.5475 193.56 97.1347 192.52 97.1337Z" fill="#09090C"/>
<path d="M123.956 172.181C123.758 172.181 123.569 172.103 123.429 171.963C123.289 171.823 123.21 171.634 123.21 171.436C123.113 156.556 110.944 156.232 110.433 156.232C110.236 156.232 110.046 156.153 109.906 156.013C109.766 155.873 109.688 155.684 109.688 155.486C109.688 155.288 109.766 155.098 109.906 154.959C110.046 154.819 110.236 154.74 110.433 154.74C110.575 154.74 124.579 155.065 124.687 171.439C124.687 171.637 124.608 171.827 124.468 171.967C124.329 172.107 124.139 172.185 123.941 172.185L123.956 172.181Z" fill="#09090C"/>
<path d="M167.548 139.499H144.432C144.234 139.499 144.045 139.42 143.905 139.28C143.765 139.141 143.686 138.951 143.686 138.753C143.686 138.555 143.765 138.366 143.905 138.226C144.045 138.086 144.234 138.007 144.432 138.007H167.548C167.746 138.007 167.935 138.086 168.075 138.226C168.215 138.366 168.293 138.555 168.293 138.753C168.293 138.951 168.215 139.141 168.075 139.28C167.935 139.42 167.746 139.499 167.548 139.499Z" fill="#09090C"/>
<path d="M145.64 257.687C145.442 257.687 145.253 257.609 145.113 257.469C144.973 257.329 144.894 257.139 144.894 256.941V223.118C144.894 222.92 144.973 222.731 145.113 222.591C145.253 222.451 145.442 222.372 145.64 222.372C145.838 222.372 146.027 222.451 146.167 222.591C146.307 222.731 146.386 222.92 146.386 223.118V256.941C146.386 257.139 146.307 257.329 146.167 257.469C146.027 257.609 145.838 257.687 145.64 257.687Z" fill="#09090C"/>
<path d="M114.915 169.012H81.0951C80.8973 169.012 80.7076 168.934 80.5678 168.794C80.428 168.654 80.3494 168.464 80.3494 168.267C80.3494 168.069 80.428 167.879 80.5678 167.739C80.7076 167.6 80.8973 167.521 81.0951 167.521H114.915C115.113 167.521 115.302 167.6 115.442 167.739C115.582 167.879 115.66 168.069 115.66 168.267C115.66 168.464 115.582 168.654 115.442 168.794C115.302 168.934 115.113 169.012 114.915 169.012Z" fill="#09090C"/>
<path d="M33.7004 219.572C33.5476 219.573 33.3985 219.526 33.2731 219.438C33.1477 219.351 33.0522 219.227 32.9995 219.084C28.6746 207.287 19.7341 197.709 19.6446 197.616C19.5086 197.472 19.4354 197.28 19.441 197.082C19.4466 196.885 19.5306 196.697 19.6744 196.561C19.8183 196.425 20.0103 196.352 20.2082 196.357C20.406 196.363 20.5936 196.447 20.7295 196.591C20.819 196.688 29.9684 206.478 34.4014 218.588C34.4687 218.773 34.4598 218.978 34.3767 219.157C34.2935 219.336 34.1429 219.474 33.9577 219.542C33.8746 219.568 33.7873 219.579 33.7004 219.572Z" fill="#09090C"/>
<path d="M37.9209 220.788C37.7231 220.788 37.5335 220.709 37.3936 220.569C37.2538 220.43 37.1752 220.24 37.1752 220.042V209.83C37.1752 209.632 37.2538 209.443 37.3936 209.303C37.5335 209.163 37.7231 209.085 37.9209 209.085C38.1187 209.085 38.3083 209.163 38.4482 209.303C38.588 209.443 38.6666 209.632 38.6666 209.83V220.042C38.6666 220.24 38.588 220.43 38.4482 220.569C38.3083 220.709 38.1187 220.788 37.9209 220.788Z" fill="#09090C"/>
<path d="M59.892 235.399C59.891 232.958 58.9209 230.617 57.1947 228.891C55.4686 227.165 53.1278 226.195 50.6867 226.194H48.6362V219.24H23.2611V226.198H21.2105C18.7691 226.198 16.4277 227.167 14.7014 228.894C12.9751 230.62 12.0052 232.961 12.0052 235.403C12.0082 237.842 12.9795 240.18 14.7056 241.903C16.4317 243.627 18.7714 244.594 21.2105 244.593C20.0018 244.593 18.8049 244.83 17.6881 245.293C16.5713 245.755 15.5565 246.432 14.7016 247.287C13.8468 248.141 13.1687 249.156 12.706 250.273C12.2434 251.389 12.0052 252.586 12.0052 253.795C12.0047 255.004 12.2425 256.201 12.7049 257.318C13.1674 258.435 13.8454 259.45 14.7003 260.305C15.5552 261.16 16.5702 261.838 17.6872 262.3C18.8043 262.763 20.0015 263 21.2105 263H50.6867C53.1281 263 55.4695 262.03 57.1958 260.304C58.9222 258.578 59.892 256.236 59.892 253.795C59.891 251.354 58.9207 249.014 57.1945 247.288C55.4683 245.563 53.1275 244.593 50.6867 244.593C53.1262 244.593 55.4659 243.625 57.1919 241.901C58.9179 240.177 59.889 237.839 59.892 235.399Z" fill="#FFE589"/>
<path d="M51.0745 245.391H40.6761C40.4784 245.391 40.2887 245.312 40.1489 245.173C40.009 245.033 39.9305 244.843 39.9305 244.645C39.9305 244.448 40.009 244.258 40.1489 244.118C40.2887 243.978 40.4784 243.9 40.6761 243.9H51.0745C51.2722 243.9 51.4619 243.978 51.6017 244.118C51.7416 244.258 51.8201 244.448 51.8201 244.645C51.8201 244.843 51.7416 245.033 51.6017 245.173C51.4619 245.312 51.2722 245.391 51.0745 245.391Z" fill="#09090C"/>
<path d="M26.1021 245.339H20.6587C20.461 245.339 20.2713 245.26 20.1315 245.12C19.9916 244.981 19.9131 244.791 19.9131 244.593C19.9131 244.395 19.9916 244.206 20.1315 244.066C20.2713 243.926 20.461 243.848 20.6587 243.848H26.1021C26.2999 243.848 26.4895 243.926 26.6294 244.066C26.7692 244.206 26.8478 244.395 26.8478 244.593C26.8478 244.791 26.7692 244.981 26.6294 245.12C26.4895 245.26 26.2999 245.339 26.1021 245.339Z" fill="#09090C"/>
<path d="M35.9524 221.403C43.0872 221.403 48.8711 220.198 48.8711 218.711C48.8711 217.224 43.0872 216.019 35.9524 216.019C28.8176 216.019 23.0337 217.224 23.0337 218.711C23.0337 220.198 28.8176 221.403 35.9524 221.403Z" fill="#09090C"/>
<path d="M37.9209 209.83C41.2876 209.83 44.0168 207.101 44.0168 203.734C44.0168 200.368 41.2876 197.638 37.9209 197.638C34.5543 197.638 31.8251 200.368 31.8251 203.734C31.8251 207.101 34.5543 209.83 37.9209 209.83Z" fill="#FFE589"/>
<path d="M17.993 201.143C21.6005 201.143 24.525 198.219 24.525 194.611C24.525 191.004 21.6005 188.079 17.993 188.079C14.3854 188.079 11.4609 191.004 11.4609 194.611C11.4609 198.219 14.3854 201.143 17.993 201.143Z" fill="#FFE589"/>
<path d="M96.631 100.881C95.8854 98.845 94.8079 96.2315 93.2942 94.0467C92.0116 92.1825 90.5464 91.3995 88.9357 91.6792C88.47 91.7348 88.0222 91.8926 87.6246 92.1414C87.2269 92.3902 86.8891 92.7238 86.6354 93.1183C85.364 95.1577 86.2103 98.7556 86.6354 100.202L86.6913 100.389L85.2708 100.84L85.2037 100.62C84.6109 98.5766 83.8391 94.7849 85.3715 92.3279C85.7346 91.7537 86.2193 91.2662 86.7913 90.8996C87.3633 90.5331 88.0088 90.2965 88.6822 90.2065C90.8857 89.8336 92.9064 90.8552 94.5245 93.1891C96.1426 95.5231 97.2425 98.2373 98.0329 100.351L96.631 100.881Z" fill="#09090C"/>
</svg>
