<svg width="32" height="29" viewBox="0 0 32 29" fill="none" xmlns="http://www.w3.org/2000/svg">
<g filter="url(#filter0_d_26_43)">
<path d="M27.9331 12.7452C27.8089 12.1576 27.1736 11.6847 26.0223 11.336C25.0573 11.0446 23.8439 10.8726 22.5064 10.8439L22.3774 5.40763C22.2006 4.8726 21.5653 4.43788 20.4904 4.11304C19.4156 3.7882 18.0159 3.61145 16.5398 3.61145C15.0685 3.61145 13.6783 3.7882 12.6274 4.11304C11.7627 4.38056 10.7261 4.87737 10.7261 5.73247C10.7261 5.78502 10.7309 5.83757 10.7404 5.89011L10.793 8.06846C10.4395 8.00158 10.0812 7.96814 9.71815 7.96814C6.56529 7.96814 4 10.5334 4 13.6863C4 16.8439 6.55573 19.4044 9.71338 19.4044C11.0271 19.4044 12.3025 18.9506 13.3201 18.1242C14.2182 18.3344 15.2739 18.449 16.3917 18.4586C16.6354 19.7818 19.5064 20.3885 22.1815 20.3885C23.6529 20.3885 25.0382 20.207 26.0987 19.8822C26.9729 19.6146 28 19.113 28 18.2579L27.9331 12.7452ZM12.8949 5.03024C13.8599 4.73406 15.1545 4.56686 16.5303 4.56686C17.8917 4.56686 19.2341 4.73406 20.2086 5.03024C21.25 5.34553 21.4745 5.67037 21.4745 5.73725C21.4745 5.80413 21.25 6.12897 20.2086 6.44425C19.2389 6.73565 17.8965 6.90763 16.535 6.90763C15.2166 6.90763 13.965 6.75476 13.0143 6.47769C11.9873 6.18151 11.6959 5.8519 11.672 5.7468C11.672 5.74202 11.6672 5.73725 11.6624 5.73247C11.6624 5.63215 11.9825 5.31209 12.8949 5.03024ZM21.551 6.91718V8.11145C21.4984 8.19266 21.4745 8.28342 21.4745 8.37897C21.4745 8.44107 21.25 8.77069 20.2134 9.08597C19.2436 9.38215 17.9013 9.54935 16.5398 9.54935C15.3599 9.54935 14.2038 9.42514 13.2866 9.19107C13.2723 9.18629 13.258 9.18629 13.2484 9.18151C12.7994 8.82323 12.293 8.53661 11.758 8.33597L11.7245 6.98884C12.0541 7.15604 12.3981 7.28979 12.7564 7.38534C13.793 7.68629 15.1354 7.84871 16.5446 7.84871C18.0207 7.84871 19.4204 7.67196 20.4904 7.34712C20.8535 7.25158 21.2118 7.10349 21.551 6.91718ZM12.9188 17.207C10.9745 18.9793 7.96019 18.836 6.19268 16.8917C4.42516 14.9474 4.56369 11.9331 6.50796 10.1656C7.38694 9.36782 8.52866 8.92355 9.71338 8.92355C10.1911 8.92355 10.664 8.99521 11.1226 9.13374C11.7436 9.32483 12.3217 9.64489 12.8137 10.0748C13.6162 10.7579 14.1656 11.6943 14.3806 12.7261C14.4427 13.0414 14.4761 13.3662 14.4761 13.6863C14.4809 15.0286 13.9124 16.3089 12.9188 17.207ZM14.1322 17.3121C14.5191 16.8392 14.8296 16.3089 15.0494 15.7404C15.4602 15.7739 15.8901 15.7978 16.3344 15.8025C16.3248 15.8599 16.3248 15.9124 16.3344 15.9697L16.3535 17.5079C15.6131 17.4984 14.8726 17.4363 14.1322 17.3121ZM15.4076 13.1178C15.6895 13.1369 15.9809 13.1465 16.2818 13.1513C16.2866 13.1847 16.2962 13.2181 16.3057 13.2516L16.3248 14.8423C15.9809 14.8376 15.6417 14.8232 15.3217 14.7993C15.3933 14.4315 15.4315 14.0541 15.4315 13.6815C15.4315 13.4952 15.422 13.3089 15.4076 13.1178ZM16.5732 12.2006C16.5589 12.2006 16.5494 12.2006 16.535 12.2006C16.0717 12.2006 15.6322 12.1815 15.2213 12.1481C15.0446 11.5127 14.7532 10.9108 14.371 10.371C15.0876 10.4618 15.8137 10.5095 16.535 10.5095C18.0111 10.5095 19.4108 10.3328 20.4809 10.0079C20.8535 9.90285 21.207 9.75476 21.5462 9.56846V10.8439C20.3519 10.8774 19.2293 11.0302 18.336 11.2834C17.4952 11.5223 16.9076 11.828 16.5732 12.2006ZM17.2325 12.9124C17.3137 12.7643 17.672 12.4729 18.6035 12.215C19.5398 11.9522 20.758 11.8089 22.0382 11.8089H22.0764C23.4427 11.8089 24.7803 11.9665 25.75 12.2627C26.7532 12.5685 26.9968 12.8742 27.0111 12.9554V12.9602C27.0064 13.0318 26.7723 13.3614 25.7118 13.6767C24.7325 13.9681 23.4379 14.1258 22.0764 14.1258C20.8105 14.1258 19.5924 13.9825 18.6561 13.7293C17.758 13.4857 17.371 13.2038 17.2564 13.0414C17.2564 12.9984 17.2468 12.9554 17.2325 12.9124ZM27.0446 18.2532C27.0446 18.32 26.8344 18.6497 25.8169 18.965C24.8424 19.2659 23.5525 19.4331 22.1768 19.4331C20.7962 19.4331 19.5111 19.2707 18.551 18.9793C17.6385 18.6974 17.3328 18.3822 17.3328 18.2771C17.3328 18.2723 17.3328 18.2723 17.3328 18.2675L17.328 17.9761L17.3137 16.8965C17.6959 17.0828 18.0924 17.2261 18.5032 17.3264C19.5064 17.5892 20.7723 17.7325 22.0764 17.7325C23.5525 17.7325 24.9379 17.5557 26.008 17.2309C26.3567 17.1258 26.758 16.9825 27.0446 16.7962V18.2532ZM26.9825 15.6067C26.9825 15.6736 26.7627 15.9984 25.7357 16.3137C24.7564 16.6099 23.457 16.7723 22.0717 16.7723C19.4729 16.7723 17.7054 16.1943 17.2946 15.7357L17.2755 14.2261C18.4029 14.8137 20.2994 15.0812 22.0764 15.0812C23.5287 15.0812 24.9092 14.9092 25.9745 14.5939C26.3471 14.4888 26.7054 14.3455 27.0494 14.1592V15.3535C27.0446 15.4251 26.9825 15.5111 26.9825 15.6067Z" fill="white"/>
<path d="M9.7182 10.5287C7.97457 10.5287 6.56534 11.9427 6.56534 13.6816C6.56534 15.4204 7.97935 16.8344 9.7182 16.8344C11.4571 16.8344 12.8711 15.4204 12.8711 13.6816C12.8663 11.9427 11.4571 10.5335 9.7182 10.5287ZM9.7182 15.8838C8.50483 15.8838 7.52075 14.8997 7.52075 13.6863C7.52075 12.473 8.50483 11.4889 9.7182 11.4889C10.9316 11.4889 11.9157 12.473 11.9157 13.6863C11.9157 14.8997 10.9316 15.8838 9.7182 15.8838Z" fill="white"/>
</g>
<defs>
<filter id="filter0_d_26_43" x="0" y="0" width="32" height="32" filterUnits="userSpaceOnUse" color-interpolation-filters="sRGB">
<feFlood flood-opacity="0" result="BackgroundImageFix"/>
<feColorMatrix in="SourceAlpha" type="matrix" values="0 0 0 0 0 0 0 0 0 0 0 0 0 0 0 0 0 0 127 0" result="hardAlpha"/>
<feOffset dy="4"/>
<feGaussianBlur stdDeviation="2"/>
<feComposite in2="hardAlpha" operator="out"/>
<feColorMatrix type="matrix" values="0 0 0 0 0 0 0 0 0 0 0 0 0 0 0 0 0 0 0.25 0"/>
<feBlend mode="normal" in2="BackgroundImageFix" result="effect1_dropShadow_26_43"/>
<feBlend mode="normal" in="SourceGraphic" in2="effect1_dropShadow_26_43" result="shape"/>
</filter>
</defs>
</svg>
